<svg width="42" height="61" viewBox="0 0 42 61" xmlns="http://www.w3.org/2000/svg"><title>chi-icon@3x</title><g stroke="#3D77EA" stroke-width="1.774" fill="none" fill-rule="evenodd" stroke-linecap="round" stroke-linejoin="round"><path d="M11.298 56.576l4.267-47.29H27.224l4.216 47.183M25 1.552v7.734M18 .833v7.734"/><path d="M21.512 12.273l6.231 4.702L14.555 27.51 29.32 40.045l-16.083 11.1 10.947 7.773"/><path d="M21.512 12.273l-6.268 4.702 13.19 10.535-14.768 12.535 16.084 11.1-10.947 7.773"/><path d="M14.51 20.954C6.938 23.716 1.517 30.988 1.517 39.523c0 7.272 3.931 13.624 9.786 17.048a19.54 19.54 0 0 0 9.973 2.71c3.714 0 7.2-1.024 10.169-2.813 5.741-3.455 9.59-9.755 9.59-16.945 0-8.452-5.297-15.652-12.756-18.476"/></g></svg>