<?xml version="1.0" encoding="iso-8859-1"?>
<!-- Generator: Adobe Illustrator 18.0.0, SVG Export Plug-In . SVG Version: 6.00 Build 0)  -->
<!DOCTYPE svg PUBLIC "-//W3C//DTD SVG 1.1//EN" "http://www.w3.org/Graphics/SVG/1.1/DTD/svg11.dtd">
<svg version="1.1" id="Capa_1" xmlns="http://www.w3.org/2000/svg" xmlns:xlink="http://www.w3.org/1999/xlink" x="0px" y="0px"
	 viewBox="0 0 74.207 74.207" style="enable-background:new 0 0 74.207 74.207;" xml:space="preserve">
<path style="fill:#231F20;" d="M14.867,20.365c0.023-0.781,0.093-3.158,1.728-3.775c1.621-0.613,3.327,1.093,3.653,1.441
	c0.377,0.404,0.356,1.037-0.047,1.414c-0.403,0.377-1.037,0.356-1.414-0.047c-0.537-0.569-1.281-0.999-1.486-0.936
	c-0.002,0.001-0.385,0.284-0.435,1.963c-0.134,4.569,3.372,5.839,3.521,5.891c0.311,0.108,0.555,0.364,0.643,0.682l0.055,0.199
	c0.016,0.059,0.027,0.12,0.032,0.181c0.99,11.794,10.335,15.609,14.706,15.609s13.716-3.815,14.705-15.609
	c0.005-0.062,0.016-0.124,0.033-0.184l0.055-0.199c0.089-0.321,0.332-0.576,0.648-0.682c0.144-0.05,3.649-1.32,3.515-5.889
	c-0.049-1.679-0.433-1.961-0.437-1.963c-0.207-0.064-0.965,0.382-1.484,0.937c-0.377,0.403-1.01,0.424-1.414,0.047
	c-0.403-0.377-0.424-1.01-0.047-1.414c0.326-0.348,2.029-2.053,3.653-1.441c1.634,0.618,1.704,2.994,1.727,3.775
	c0.128,4.368-2.491,6.742-4.296,7.606c-1.192,11.732-10.408,17.016-16.659,17.016s-15.467-5.284-16.659-17.016
	C17.358,27.106,14.738,24.733,14.867,20.365z M28.373,46.307l-4.694,2.204l-0.396-7.246c-0.031-0.551-0.511-0.969-1.053-0.944
	c-0.551,0.03-0.974,0.502-0.944,1.053l0.078,1.425c-3.561,1.349-19.829,8.578-19.829,27.981c0,0.552,0.448,1,1,1s1-0.448,1-1
	c0-17.492,13.769-24.249,17.944-25.895l0.285,5.216c0.018,0.332,0.2,0.633,0.485,0.804c0.158,0.094,0.335,0.142,0.513,0.142
	c0.145,0,0.29-0.031,0.425-0.095l6.036-2.833c0.5-0.235,0.715-0.83,0.48-1.33C29.468,46.287,28.872,46.072,28.373,46.307z
	 M15.862,66.313c-0.552,0-1,0.448-1,1v3.466c0,0.552,0.448,1,1,1c0.552,0,1-0.448,1-1v-3.466
	C16.862,66.761,16.415,66.313,15.862,66.313z M20.448,16.083c0.001,0,0.003,0,0.004,0c0.55,0,0.998-0.445,1-0.996
	c0.012-2.607,0.822-4.999,2.28-6.733c0.355-0.423,0.301-1.054-0.122-1.409c-0.423-0.355-1.053-0.3-1.409,0.122
	c-1.758,2.092-2.735,4.938-2.749,8.012C19.45,15.63,19.896,16.08,20.448,16.083z M17.539,14.488c0.001,0,0.002,0,0.003,0
	c0.551,0,0.999-0.446,1-0.997c0.004-1.223,0.558-2.999,0.825-3.853c0.165-0.527-0.129-1.088-0.657-1.252
	c-0.525-0.165-1.088,0.128-1.252,0.657c-0.473,1.515-0.912,3.102-0.916,4.442C16.54,14.038,16.986,14.487,17.539,14.488z
	 M26.505,5.687h14.68c0.325,0.004,7.972,0.209,7.972,9.231c0,0.552,0.448,1,1,1s1-0.448,1-1c0-10.972-9.846-11.23-9.959-11.231
	H26.505c-0.552,0-1,0.448-1,1S25.953,5.687,26.505,5.687z M28.798,2h12.4c0.552,0,1-0.448,1-1s-0.448-1-1-1h-12.4
	c-0.552,0-1,0.448-1,1S28.246,2,28.798,2z M36.521,21.008v8.248h-2.398c-0.552,0-1,0.448-1,1s0.448,1,1,1h3.398c0.552,0,1-0.448,1-1
	v-9.248c0-0.552-0.448-1-1-1S36.521,20.456,36.521,21.008z M62.534,71.118c0,2.122-3.17,3.089-6.116,3.089
	c-2.869,0-5.942-0.92-6.101-2.928c-0.001-0.004-0.003-0.007-0.004-0.012L47.46,52.406c-0.029-0.118-0.044-0.241-0.055-0.365
	l-0.012-0.081c-0.001-0.009,0.002-0.017,0.001-0.026c-0.002-0.042-0.013-0.081-0.013-0.123c0-0.41,0.107-0.787,0.285-1.139
	l-5.441-2.554c-0.5-0.235-0.715-0.83-0.48-1.33c0.234-0.501,0.831-0.716,1.33-0.48l4.694,2.204l0.396-7.246
	c0.03-0.551,0.509-0.967,1.053-0.944c0.551,0.03,0.974,0.502,0.944,1.053l-0.084,1.532c2.757,0.774,6.505,3.006,8.177,4.636
	c0.024,0.023,0.033,0.054,0.053,0.078c3.791,0.355,7.145,1.777,7.145,4.191c0,2.811-4.546,4.282-9.037,4.282
	c-2.414,0-4.837-0.429-6.568-1.258l2.129,14.077c1.188-0.597,2.844-0.883,4.439-0.883C59.363,68.028,62.534,68.995,62.534,71.118z
	 M56.418,49.529c-4.491,0-6.964,1.465-7.03,2.248l0.031,0.202c0.314,0.805,2.757,2.113,7,2.113c4.553,0,7.037-1.507,7.037-2.282
	S60.971,49.529,56.418,49.529z M49.967,44.958l-0.212,3.874c1.419-0.703,3.328-1.124,5.321-1.255
	C53.539,46.535,51.566,45.484,49.967,44.958z M60.538,71.085c-0.119-0.255-1.519-1.057-4.121-1.057
	c-2.601,0-4.002,0.802-4.121,1.122c0.119,0.254,1.52,1.057,4.121,1.057C59.019,72.207,60.42,71.404,60.538,71.085z M72.671,59.967
	l-0.001,6.94c0,3.005-2.445,5.45-5.45,5.45s-5.45-2.445-5.45-5.45l-0.001-6.94c-0.008-1.486-0.017-3.171,1.177-4.372
	c0.893-0.898,2.291-1.334,4.274-1.334s3.381,0.437,4.274,1.334C72.688,56.796,72.679,58.481,72.671,59.967z M70.076,57.005
	c-0.491-0.494-1.453-0.745-2.856-0.745s-2.365,0.25-2.856,0.745c-0.406,0.409-0.536,1.054-0.577,1.795h2.325c0.552,0,1,0.448,1,1
	s-0.448,1-1,1h-2.343l0,1.821h2.343c0.552,0,1,0.448,1,1s-0.448,1-1,1h-2.342l0,1.688h2.342c0.552,0,1,0.448,1,1s-0.448,1-1,1
	h-2.037c0.539,1.204,1.743,2.047,3.145,2.047c1.902,0,3.45-1.548,3.45-3.45l0.001-6.951C70.677,58.753,70.684,57.617,70.076,57.005z
	 M35.822,49.045c-0.552,0-1,0.448-1,1v21.312c0,0.552,0.448,1,1,1s1-0.448,1-1V50.045C36.822,49.493,36.375,49.045,35.822,49.045z
	 M56.94,58.487c1.622,0,2.938,1.697,2.938,3.791c0,2.094-1.315,3.791-2.938,3.791c-1.622,0-2.938-1.697-2.938-3.791
	C54.002,60.185,55.317,58.487,56.94,58.487z M57.225,60.232c-0.119-0.558-0.286-0.93-0.286-0.93s-0.167,0.372-0.286,0.93
	c-0.127,0.558-0.21,1.302-0.214,2.046c0.003,0.744,0.085,1.488,0.213,2.046c0.119,0.558,0.287,0.93,0.287,0.93
	s0.168-0.372,0.287-0.93c0.127-0.558,0.21-1.302,0.213-2.046C57.436,61.534,57.352,60.79,57.225,60.232z"/>
<g>
</g>
<g>
</g>
<g>
</g>
<g>
</g>
<g>
</g>
<g>
</g>
<g>
</g>
<g>
</g>
<g>
</g>
<g>
</g>
<g>
</g>
<g>
</g>
<g>
</g>
<g>
</g>
<g>
</g>
</svg>
