<?xml version="1.0" encoding="iso-8859-1"?>
<!-- Generator: Adobe Illustrator 19.0.0, SVG Export Plug-In . SVG Version: 6.00 Build 0)  -->
<svg version="1.1" id="Layer_1" xmlns="http://www.w3.org/2000/svg" xmlns:xlink="http://www.w3.org/1999/xlink" x="0px" y="0px"
	 viewBox="0 0 512 512" style="enable-background:new 0 0 512 512;" xml:space="preserve">
<circle style="fill:#273B7A;" cx="256" cy="256" r="256"/>
<path style="fill:#121149;" d="M281.39,510.748C410.855,498,512,388.817,512,256c0-0.652-0.019-1.298-0.024-1.948L349.049,91.126
	l-15.831,137.509L204.571,99.987l3.053,154.262l-10.855,171.879L281.39,510.748z"/>
<path style="fill:#D35933;" d="M342.34,429.827h-65.508c-5.475,0-9.912-4.437-9.912-9.912V98.406c0-5.475,4.437-9.912,9.912-9.912
	h65.508c5.475,0,9.912,4.437,9.912,9.912v321.508C352.251,425.389,347.813,429.827,342.34,429.827z"/>
<path style="fill:#B54324;" d="M342.338,88.493h-30.599v341.333h30.599c5.475,0,9.912-4.437,9.912-9.912V98.406
	C352.251,92.932,347.813,88.493,342.338,88.493z"/>
<g>
	<rect x="266.912" y="113.49" style="fill:#FFC61B;" width="28.444" height="6.896"/>
	<rect x="266.912" y="170.374" style="fill:#FFC61B;" width="28.444" height="6.896"/>
	<rect x="266.912" y="141.929" style="fill:#FFC61B;" width="56.889" height="6.896"/>
	<rect x="266.912" y="227.262" style="fill:#FFC61B;" width="28.444" height="6.896"/>
	<rect x="266.912" y="198.818" style="fill:#FFC61B;" width="56.889" height="6.896"/>
	<rect x="266.912" y="284.151" style="fill:#FFC61B;" width="28.444" height="6.896"/>
	<rect x="266.912" y="255.707" style="fill:#FFC61B;" width="56.889" height="6.896"/>
	<rect x="266.912" y="341.04" style="fill:#FFC61B;" width="28.444" height="6.896"/>
	<rect x="266.912" y="397.929" style="fill:#FFC61B;" width="28.444" height="6.896"/>
	<rect x="266.912" y="312.596" style="fill:#FFC61B;" width="56.889" height="6.896"/>
	<rect x="266.912" y="369.485" style="fill:#FFC61B;" width="56.889" height="6.896"/>
</g>
<path style="fill:#FEE187;" d="M193.377,189.056c-7.809,0-14.408,6.113-14.646,13.917c-0.047,1.524-0.012,3.072,0.11,4.637
	l15.494,212.477c0.4,5.494,4.863,9.74,10.233,9.74c5.37,0,9.833-4.248,10.233-9.74l15.494-212.477
	c0.122-1.565,0.157-3.113,0.11-4.637c-0.238-7.804-6.839-13.917-14.646-13.917H193.377z"/>
<g>
	<path style="fill:#FFC61B;" d="M230.409,202.973c-0.238-7.804-6.839-13.917-14.646-13.917h-11.479v240.759
		c0.097,0.002,0.19,0.014,0.286,0.014c5.372,0,9.833-4.248,10.233-9.74l15.494-212.477
		C230.421,206.045,230.455,204.497,230.409,202.973z"/>
	<path style="fill:#FFC61B;" d="M230.298,207.61c0.122-1.565,0.157-3.113,0.11-4.637c-0.238-7.804-6.839-13.917-14.646-13.917
		h-22.385c-7.808,0-14.408,6.113-14.646,13.917c-0.047,1.524-0.012,3.072,0.11,4.637l4.315,59.164h42.827L230.298,207.61z"/>
</g>
<path style="fill:#EAA22F;" d="M230.409,202.973c-0.238-7.804-6.839-13.917-14.646-13.917h-11.479v77.719h21.701l4.315-59.164
	C230.421,206.045,230.455,204.497,230.409,202.973z"/>
<path style="fill:#E09112;" d="M170.667,167.793c0-18.723,33.904-67.806,33.904-67.806s33.904,49.083,33.904,67.806
	s-15.181,33.904-33.904,33.904S170.667,186.518,170.667,167.793z"/>
<path style="fill:#FF5419;" d="M204.571,99.987c0,0-0.112,0.162-0.286,0.419v101.278c0.097,0,0.19,0.014,0.286,0.014
	c18.725,0,33.904-15.179,33.904-33.904S204.571,99.987,204.571,99.987z"/>
<g>
</g>
<g>
</g>
<g>
</g>
<g>
</g>
<g>
</g>
<g>
</g>
<g>
</g>
<g>
</g>
<g>
</g>
<g>
</g>
<g>
</g>
<g>
</g>
<g>
</g>
<g>
</g>
<g>
</g>
</svg>
