<svg width="39" height="39" viewBox="0 0 39 39" xmlns="http://www.w3.org/2000/svg"><title>duster@3x</title><g fill="none" fill-rule="evenodd"><path d="M25.213 21.132L37.595 35.84c.486.49.486 1.292 0 1.783-.488.49-1.285.49-1.773 0l-14.78-12.296 4.17-4.195z" stroke="#3D77EA" stroke-width="1.774" stroke-linecap="square" stroke-linejoin="round"/><path d="M1.105 20.904s-.025-1.32.355-3.273c0 0 .004.004.004-.004.46-.126 2.769-.95 4.986-.565 0 0-2.15-1.482-4.25-2.183.488-1.434 1.381-3.294 2.4-4.84 4.237-.07 8.629 3.229 8.629 3.229C9.34 8.25 9.749 4.86 9.749 4.86c1.058-.66 2.772-1.49 4.092-2.011.503 2.58 3.15 4.713 3.15 4.713-.51-2.953.337-5.809.337-5.809a33.823 33.823 0 0 1 3.521-.643s-1.04 10.046 5.831 18.546l-7.013 7.055s-7.025-7.186-18.562-5.807z" stroke="#3D77EA" stroke-width="1.774" stroke-linecap="square" stroke-linejoin="round"/><path d="M4.233 27.797c-.756 0-1.37-.616-1.37-1.377 0-.76.614-1.376 1.37-1.376.756 0 1.37.616 1.37 1.376 0 .76-.614 1.377-1.37 1.377m5.384-.298a.9.9 0 0 1-.899-.904.9.9 0 0 1 .899-.904.9.9 0 0 1 .898.904.9.9 0 0 1-.898.904m-3.562 6.449A1.771 1.771 0 0 1 4.29 32.17c0-.982.791-1.777 1.766-1.777.976 0 1.767.795 1.767 1.777 0 .981-.791 1.777-1.767 1.777" fill="#3D77EA"/></g></svg>