<svg width="179" height="55" xmlns="http://www.w3.org/2000/svg">
 <!-- Created with Method Draw - http://github.com/duopixel/Method-Draw/ -->

 <g>
  <title>background</title>
  <rect fill="none" id="canvas_background" height="57" width="181" y="-1" x="-1"/>
  <g display="none" overflow="visible" y="0" x="0" height="100%" width="100%" id="canvasGrid">
   <rect fill="url(#gridpattern)" stroke-width="0" y="1" x="1" height="53" width="177"/>
  </g>
 </g>
 <g>
  <title>Layer 1</title>
  <g id="svg_23">
   <g transform="matrix(0.10551818539428215,0,0,0.10551818539428215,0,0) " id="svg_5">
    <g id="svg_6">
     <path fill="#0E353B" id="svg_7" d="m392.956819,99.712622c0,-10.574 -4.118,-20.515 -11.598,-27.993c-7.478,-7.477 -17.419,-11.595 -27.99,-11.595c-10.575,0 -20.518,4.118 -27.991,11.594l-49.922,49.922l-26.455,-26.455c-6.118,-6.116 -14.251,-9.485 -22.901,-9.485c-8.65,0 -16.781,3.37 -22.897,9.485l-51.313,51.312c-1.953,1.954 -3.052,4.604 -3.052,7.367c0,2.692 1.043,5.277 2.903,7.215l-85.73,85.728c-4.063,4.063 -4.07,10.65 -0.013,14.72l48.812,48.983l-0.025,17.919c0,13.652 2.397,23.549 7.539,31.144c5.392,7.968 13.785,12.985 23.464,14.171c-0.85,7.257 -2.84,15.214 -4.779,22.971c-5.027,20.12 -10.226,40.925 3.055,57.934c8.257,10.577 21.338,15.94 38.881,15.94c16.533,0 25.787,-7.18 30.639,-13.199c11.707,-14.528 7.727,-32.821 4.522,-47.545c-0.164,-0.768 -0.333,-1.535 -0.498,-2.309c2.276,0.494 4.621,0.744 7.021,0.744c7.041,0 13.847,-2.192 20.229,-6.515c9.109,-6.162 14.354,-15.396 15.16,-26.705c0.465,-6.515 -0.627,-12.718 -1.682,-18.72c-1.127,-6.377 -2.194,-12.43 -1.779,-19.264l35.604,-35.589c1.918,1.77 4.438,2.758 7.06,2.758l0,0c2.766,0 5.413,-1.098 7.368,-3.051l51.313,-51.313c6.114,-6.117 9.483,-14.25 9.483,-22.901c0,-8.65 -3.369,-16.783 -9.481,-22.898l-26.458,-26.456l49.92,-49.921c7.473,-7.477 11.591,-17.419 11.591,-27.993zm-161.656,221.271c-1.515,1.514 -2.526,3.457 -2.896,5.563c-2.501,14.226 -0.397,26.154 1.137,34.866c1.994,11.329 1.805,14.194 -1.068,16.14c-1.005,0.681 -2.486,1.49 -3.841,1.491c-3.612,0 -6.568,-6.105 -7.388,-7.978c-2.241,-5.112 -8.109,-7.552 -13.313,-5.531c-23.409,9.084 -18.195,33.046 -14.391,50.543c1.972,9.059 4.205,19.326 1.273,22.967c-1.536,1.904 -5.128,2.305 -7.87,2.305c-8.082,0 -13.413,-1.58 -15.849,-4.696c-4.502,-5.769 -1.212,-18.925 2.271,-32.854c3.397,-13.587 7.249,-28.987 5.743,-43.648c-1.106,-10.798 -6.069,-16.271 -14.748,-16.273l-0.002,0c-1.924,0 -3.807,0.249 -5.633,0.49c-1.6,0.212 -3.109,0.412 -4.438,0.412c-2.682,0 -3.306,-0.925 -3.761,-1.599c-1.146,-1.692 -2.514,-5.625 -2.514,-14.721l0.035,-25.703c0.004,-2.761 -1.088,-5.41 -3.038,-7.367l-41.052,-41.196l66.887,-66.882l27.434,27.434l-33.175,38.264c-0.717,0.826 -0.674,2.065 0.1,2.837c0.404,0.406 0.939,0.611 1.471,0.611c0.487,0 0.975,-0.169 1.367,-0.51l38.264,-33.176l34.875,34.875l-22.417,25.857c-0.717,0.826 -0.674,2.065 0.1,2.839c0.404,0.404 0.939,0.609 1.472,0.609c0.486,0 0.974,-0.169 1.366,-0.511l25.856,-22.417l22.354,22.353l-34.611,34.606z"/>
    </g>
   </g>
   <g transform="matrix(0.10551818539428215,0,0,0.10551818539428215,0,0) " id="svg_8"/>
   <g transform="matrix(0.10551818539428215,0,0,0.10551818539428215,0,0) " id="svg_9"/>
   <g transform="matrix(0.10551818539428215,0,0,0.10551818539428215,0,0) " id="svg_10"/>
   <g transform="matrix(0.10551818539428215,0,0,0.10551818539428215,0,0) " id="svg_11"/>
   <g transform="matrix(0.10551818539428215,0,0,0.10551818539428215,0,0) " id="svg_12"/>
   <g transform="matrix(0.10551818539428215,0,0,0.10551818539428215,0,0) " id="svg_13"/>
   <g transform="matrix(0.10551818539428215,0,0,0.10551818539428215,0,0) " id="svg_14"/>
   <g transform="matrix(0.10551818539428215,0,0,0.10551818539428215,0,0) " id="svg_15"/>
   <g transform="matrix(0.10551818539428215,0,0,0.10551818539428215,0,0) " id="svg_16"/>
   <g transform="matrix(0.10551818539428215,0,0,0.10551818539428215,0,0) " id="svg_17"/>
   <g transform="matrix(0.10551818539428215,0,0,0.10551818539428215,0,0) " id="svg_18"/>
   <g transform="matrix(0.10551818539428215,0,0,0.10551818539428215,0,0) " id="svg_19"/>
   <g transform="matrix(0.10551818539428215,0,0,0.10551818539428215,0,0) " id="svg_20"/>
   <g transform="matrix(0.10551818539428215,0,0,0.10551818539428215,0,0) " id="svg_21"/>
   <g transform="matrix(0.10551818539428215,0,0,0.10551818539428215,0,0) " id="svg_22"/>
  </g>
  <text font-weight="bold" xml:space="preserve" text-anchor="start" font-family="Helvetica, Arial, sans-serif" font-size="30" id="svg_24" y="32.5" x="57.5" stroke-width="0" stroke="#fff" fill="#1A333F">PINTOR</text>
  <text xml:space="preserve" text-anchor="start" font-family="Helvetica, Arial, sans-serif" font-size="11" id="svg_25" y="46.5" x="42.5" stroke-width="0" stroke="#fff" fill="#000000">SAN JOSE, COSTA RICA</text>
 </g>
</svg>