<svg width="43" height="62" viewBox="0 0 43 62" xmlns="http://www.w3.org/2000/svg"><title>nyc-icon@3x</title><g stroke-width="1.7" stroke="#3D77EA" fill="none" fill-rule="evenodd" stroke-linecap="round" stroke-linejoin="round"><path d="M6.178 53.55v-3.908h2.979V45.9h2.979V21.096H15v-5.27h1.72v-3.552h4.906M37.075 53.55v-3.908h-2.979V45.9h-2.979V21.096h-2.864v-5.27h-1.719v-3.552h-4.907m-3.075-.001V8.494h6.34v3.78M21 1.526v6.969"/><path d="M24.892 21.357v24.598h-6.34V21.357"/><path d="M12.137 22.977C5.82 26.355 1.527 33.019 1.527 40.692c0 4.895 1.747 9.369 4.652 12.853a20.016 20.016 0 0 0 15.453 7.253 20.01 20.01 0 0 0 15.442-7.253 19.986 19.986 0 0 0 4.652-12.853c0-7.673-4.294-14.337-10.61-17.726"/></g></svg>