<?xml version="1.0" encoding="iso-8859-1"?>
<!-- Generator: Adobe Illustrator 19.0.0, SVG Export Plug-In . SVG Version: 6.00 Build 0)  -->
<svg version="1.1" id="Layer_1" xmlns="http://www.w3.org/2000/svg" xmlns:xlink="http://www.w3.org/1999/xlink" x="0px" y="0px"
	 viewBox="0 0 512.003 512.003" style="enable-background:new 0 0 512.003 512.003;" xml:space="preserve">
<circle style="fill:#273B7A;" cx="256.002" cy="256" r="256"/>
<path style="fill:#121149;" d="M500.86,330.89l-99.019-102.881l-90.259-30.025l-0.519,0.519l-75.817-75.817l-49.03,53.122
	l69.785,72.507l-4.667,9.914l-1.512-1.512l-13.96,16.984l-0.619,0.619l0.06,0.06L131.781,400.336l111.345,111.345
	c4.265,0.212,8.557,0.322,12.876,0.322C371.329,512,468.833,435.734,500.86,330.89z"/>
<path style="fill:#FFC61B;" d="M221.072,296.25c-1.984,0-3.972-0.757-5.485-2.272c-3.031-3.029-3.031-7.94,0-10.969l24.176-24.176
	c2.822-2.822,4.375-6.573,4.375-10.564s-1.553-7.744-4.375-10.566l-49.369-49.369c-5.482-5.48-8.501-12.767-8.501-20.518
	c0-7.752,3.019-15.041,8.501-20.52l35.247-35.249c1.455-1.455,3.427-2.272,5.485-2.272c2.058,0,4.03,0.817,5.485,2.272
	l160.908,160.906c3.031,3.029,3.031,7.94,0,10.969c-3.027,3.031-7.942,3.031-10.969,0L231.127,128.5l-29.763,29.763
	c-5.265,5.267-5.265,13.833,0,19.099l49.369,49.369c11.876,11.874,11.876,31.196,0,43.068l-24.176,24.176
	C225.044,295.491,223.058,296.25,221.072,296.25z"/>
<g>
	<path style="fill:#EAA22F;" d="M221.072,296.25c1.984,0,3.972-0.757,5.485-2.272l24.176-24.176
		c5.458-5.458,8.376-12.49,8.816-19.647l-43.885,43.885C217.169,295.507,219.119,296.25,221.072,296.25z"/>
	<path style="fill:#EAA22F;" d="M397.521,272.949l-80.384-80.382l-10.971,10.971l80.384,80.382c3.027,3.031,7.942,3.031,10.969,0
		C400.551,280.89,400.551,275.978,397.521,272.949z"/>
</g>
<path style="fill:#FFFFFF;" d="M340.33,287.07L227.371,174.111c-7.687-7.687-7.687-20.147,0-27.834l32.506-32.506
	c7.687-7.687,20.147-7.687,27.834,0L400.67,226.73c7.687,7.687,7.687,20.147,0,27.834l-32.506,32.506
	C360.477,294.755,348.015,294.755,340.33,287.07z"/>
<path style="fill:#D0D1D3;" d="M400.668,226.73l-58.847-58.847l-60.34,60.34l58.847,58.847c7.687,7.685,20.147,7.685,27.834,0
	l32.506-32.506C408.355,246.877,408.355,234.415,400.668,226.73z"/>
<path style="fill:#FF5419;" d="M131.781,400.334l-22.55-22.55c-4.88-4.88-4.88-12.795,0-17.675l82.891-82.891
	c4.88-4.88,12.795-4.88,17.675,0l22.55,22.55c4.88,4.88,4.88,12.795,0,17.675l-82.891,82.891
	C144.575,405.214,136.663,405.214,131.781,400.334z"/>
<path style="fill:#C92F00;" d="M221.143,288.561L120.577,389.127l11.205,11.205c4.88,4.88,12.795,4.88,17.675,0l82.891-82.891
	c4.88-4.88,4.88-12.795,0-17.675L221.143,288.561z"/>
<g>
</g>
<g>
</g>
<g>
</g>
<g>
</g>
<g>
</g>
<g>
</g>
<g>
</g>
<g>
</g>
<g>
</g>
<g>
</g>
<g>
</g>
<g>
</g>
<g>
</g>
<g>
</g>
<g>
</g>
</svg>
