<?xml version="1.0" encoding="iso-8859-1"?>
<!-- Generator: Adobe Illustrator 19.0.0, SVG Export Plug-In . SVG Version: 6.00 Build 0)  -->
<svg version="1.1" id="Layer_1" xmlns="http://www.w3.org/2000/svg" xmlns:xlink="http://www.w3.org/1999/xlink" x="0px" y="0px"
	 viewBox="0 0 325.49 325.49" style="enable-background:new 0 0 325.49 325.49;" xml:space="preserve">
<g>
	<g>
		<g>
			<path d="M258.558,158.095c12.596,0,24.184-8.236,27.972-20.832c0.668,0.092,1.332,0.28,2,0.28c2.732,0,5.448-0.776,7.908-2.284
				c3.56-2.192,6.168-5.68,7.332-9.828c1.176-4.144,0.78-8.484-1.112-12.208c-1.628-3.208-4.224-5.58-7.368-6.952
				c3.968-15.316-5.024-31.124-20.328-35.448L45.63,6.051c-7.488-2.12-15.384-1.176-22.204,2.644
				c-6.832,3.82-11.764,10.056-13.876,17.54l-8.444,29.9C-1.01,63.623-0.07,71.511,3.758,78.343
				c3.82,6.836,10.052,11.76,17.54,13.872l229.332,64.772C253.27,157.739,255.93,158.095,258.558,158.095z M296.182,116.503
				c1.064,2.092,1.28,4.56,0.6,6.952c-0.676,2.392-2.148,4.38-4.156,5.612c-1.28,0.796-2.68,1.164-4.072,1.172l4.764-16.868
				C294.502,114.107,295.502,115.159,296.182,116.503z M10.086,74.803c-2.876-5.14-3.584-11.072-2-16.696l8.064-28.548
				c6.448,1.788,10.652,2.936,14.848,4.084c4.756,1.3,9.512,2.604,17.568,4.836c5.272,1.464,11.444,3.752,12.376,8.5
				c0.496,2.508-0.62,5.22-1.8,8.092c-0.556,1.348-1.1,2.692-1.52,4.048c-1.18,3.824-0.596,8.324,1.456,11.2
				c1.404,1.972,3.452,3.096,5.752,3.168c0.092,0,0.172,0.004,0.26,0.004c4.404,0,7.148-3.704,9.36-6.692
				c2.128-2.864,3.42-4.596,5.136-4.28c0.548,0.108,0.944,0.392,1.268,0.92c0.912,1.46,1.052,4.356,0.348,7.044
				c-1.032,3.92-2.948,11.216,2.156,14.984c1.82,1.34,4.04,1.784,6.4,1.28c3.148-0.668,6.276-3.056,7.976-6.068
				c1.18-2.088,1.876-4.3,2.544-6.436c0.624-1.984,1.216-3.86,2.144-5.492c0.988-1.728,2.872-3.18,4.592-3.536
				c0.928-0.188,1.668-0.048,2.28,0.416c1.904,1.44,1.272,4.652,0.084,9.38c-1.268,5.068-2.844,11.372,2.552,14.548
				c1.152,0.68,2.412,1.02,3.7,1.02c0.996,0,2.012-0.2,3-0.608c3.416-1.392,6.448-5.092,7.552-9.204
				c0.328-1.216,0.588-2.484,0.84-3.76c0.688-3.436,1.336-6.676,3.508-8.464c3-2.448,6.868-1.292,12.888,0.928
				c4.5,1.66,9.152,3.344,13.912,2.68c1.4-0.204,2.372-1.5,2.168-2.9c-0.204-1.408-1.524-2.356-2.9-2.172
				c-3.476,0.504-7.512-0.98-11.412-2.416c-5.836-2.144-12.444-4.58-17.916-0.076c-3.576,2.944-4.476,7.448-5.272,11.412
				c-0.228,1.16-0.46,2.324-0.76,3.436c-0.68,2.52-2.636,5.008-4.548,5.788c-1.08,0.444-1.756,0.16-2.164-0.08
				c-1.956-1.152-1.376-4.128-0.18-8.892c1.232-4.952,2.776-11.112-1.96-14.708c-1.78-1.348-4.04-1.832-6.4-1.348
				c-3.156,0.644-6.3,3.004-8.016,6.012c-1.2,2.108-1.9,4.34-2.58,6.496c-0.62,1.968-1.204,3.828-2.12,5.448
				c-0.98,1.74-2.868,3.212-4.588,3.576c-0.92,0.2-1.668,0.068-2.292-0.392c-2.132-1.576-1.24-5.764-0.248-9.564
				c0.856-3.24,1.052-7.852-0.948-11.06c-1.08-1.724-2.676-2.84-4.616-3.228c-4.908-0.968-7.872,3.032-10.252,6.252
				c-2.06,2.788-3.548,4.62-5.26,4.62c-0.024,0-0.052-0.004-0.08-0.004c-0.444-0.016-1.112-0.136-1.744-1.024
				c-1.116-1.564-1.428-4.452-0.736-6.716c0.376-1.212,0.872-2.408,1.364-3.608c1.352-3.284,2.884-7.012,2.088-11.032
				c-1.476-7.492-9.34-10.584-16.032-12.436c-8.06-2.24-12.824-3.54-17.584-4.844c-4.104-1.124-8.224-2.252-14.456-3.976
				c1.94-4.056,5.044-7.448,9.068-9.704c5.144-2.876,11.068-3.584,16.696-1.992l229.34,64.78
				c11.664,3.296,18.468,15.464,15.176,27.128l-8.44,29.904c-3.304,11.664-15.452,18.468-27.128,15.18L23.262,85.235
				C17.642,83.647,12.958,79.939,10.086,74.803z"/>
			<path d="M325.39,140.323c-0.712-7.448-5.312-12.424-13.692-14.792c-1.936-0.56-3.936,0.58-4.476,2.504
				c-0.548,1.924,0.572,3.932,2.504,4.476c6.888,1.944,8.124,5.232,8.432,8.492c0.452,4.744-1.428,11.38-3.42,18.4l-4.092,14.476
				c-1.892,6.68-6.252,12.232-12.288,15.628c-6.02,3.396-12.996,4.236-19.652,2.356l-119.764-33.828
				c-17.572-4.98-35.908,5.356-40.892,22.996c-0.544,1.924,0.576,3.932,2.504,4.476c1.936,0.556,3.932-0.58,4.48-2.504
				c3.896-13.784,18.216-21.856,31.936-17.988l119.772,33.828c2.976,0.84,6,1.26,9.012,1.26c5.608,0,11.14-1.44,16.168-4.268
				c7.716-4.344,13.3-11.44,15.708-19.984l4.092-14.464C323.998,153.359,325.962,146.423,325.39,140.323z"/>
			<path d="M120.77,188.795c-11.112-3.14-22.712,3.352-25.848,14.464l-25.6,90.648c-1.52,5.36-0.844,11.012,1.896,15.908
				c2.736,4.892,7.2,8.42,12.568,9.936c1.876,0.532,3.788,0.796,5.692,0.796c3.536,0,7.036-0.908,10.216-2.692
				c4.896-2.732,8.424-7.2,9.936-12.568l25.6-90.644C138.374,203.535,131.89,191.939,120.77,188.795z M128.254,212.679l-25.6,90.644
				c-0.992,3.5-3.296,6.416-6.496,8.208c-3.2,1.788-6.876,2.24-10.396,1.248c-3.5-0.992-6.416-3.3-8.208-6.504
				c-1.788-3.204-2.232-6.892-1.244-10.392l25.6-90.648c1.7-6.02,7.208-9.968,13.18-9.968c1.232,0,2.476,0.172,3.716,0.516
				c3.5,0.988,6.416,3.3,8.208,6.504C128.798,205.487,129.238,209.175,128.254,212.679z"/>
			<path d="M271.982,102.435c1.12,0,2.144-0.736,2.464-1.864c0.384-1.36-0.408-2.776-1.768-3.16l-73.32-20.704
				c-1.348-0.38-2.776,0.404-3.16,1.768c-0.384,1.36,0.412,2.776,1.768,3.16l73.32,20.704
				C271.518,102.407,271.754,102.435,271.982,102.435z"/>
			<path d="M102.002,236.391c-1.356-0.384-2.756,0.412-3.136,1.756l-14.688,52.024c-0.38,1.352,0.404,2.756,1.756,3.136
				c0.228,0.064,0.464,0.096,0.688,0.096c1.112,0,2.128-0.732,2.444-1.852l14.688-52.024
				C104.138,238.175,103.35,236.771,102.002,236.391z"/>
			<path d="M110.298,207.027c-1.344-0.384-2.756,0.4-3.136,1.756l-4.72,16.72c-0.38,1.348,0.404,2.756,1.756,3.136
				c0.232,0.064,0.464,0.092,0.688,0.092c1.112,0,2.132-0.732,2.448-1.852l4.72-16.716
				C112.434,208.811,111.65,207.411,110.298,207.027z"/>
		</g>
	</g>
</g>
<g>
</g>
<g>
</g>
<g>
</g>
<g>
</g>
<g>
</g>
<g>
</g>
<g>
</g>
<g>
</g>
<g>
</g>
<g>
</g>
<g>
</g>
<g>
</g>
<g>
</g>
<g>
</g>
<g>
</g>
</svg>
