<?xml version="1.0" encoding="iso-8859-1"?>
<!-- Generator: Adobe Illustrator 19.0.0, SVG Export Plug-In . SVG Version: 6.00 Build 0)  -->
<svg version="1.1" id="Layer_1" xmlns="http://www.w3.org/2000/svg" xmlns:xlink="http://www.w3.org/1999/xlink" x="0px" y="0px"
	 viewBox="0 0 512 512" style="enable-background:new 0 0 512 512;" xml:space="preserve">
<circle style="fill:#273B7A;" cx="256" cy="256" r="256"/>
<path style="fill:#121149;" d="M289.23,509.855c116.374-15.084,208.21-108.318,221.181-225.342L386.746,161.456l-49.295,40.974
	L225.533,90.512l-41.291,55.229l21.085,21.085l-59.94,199.187L289.23,509.855z"/>
<path style="fill:#A6A8AA;" d="M215.774,369.778h-61.771c-6.506,0-11.781-5.273-11.781-11.779V97.113
	c0-6.506,5.273-11.779,11.781-11.779h61.773c6.506,0,11.781,5.273,11.781,11.779v260.884
	C227.556,364.504,222.282,369.778,215.774,369.778z"/>
<rect x="150.842" y="255.569" style="fill:#8BC180;" width="68.956" height="28.444"/>
<rect x="150.842" y="205.145" style="fill:#6CAF5F;" width="68.956" height="28.444"/>
<rect x="150.842" y="154.721" style="fill:#477F3C;" width="68.956" height="28.444"/>
<rect x="150.842" y="104.296" style="fill:#2E5E24;" width="68.956" height="28.444"/>
<path style="fill:#D0D1D3;" d="M189.352,366.328l-43.68-43.68c-4.601-4.601-4.601-12.059,0-16.66l184.473-184.473
	c4.601-4.601,12.059-4.601,16.66,0l43.68,43.68c4.601,4.601,4.601,12.059,0,16.66L206.012,366.328
	C201.413,370.928,193.953,370.928,189.352,366.328z"/>
<rect x="223.125" y="240.525" transform="matrix(-0.7071 0.7071 -0.7071 -0.7071 599.6339 301.629)" style="fill:#71E2EF;" width="28.444" height="68.956"/>
<rect x="258.786" y="204.87" transform="matrix(-0.7071 0.7071 -0.7071 -0.7071 635.2988 215.5459)" style="fill:#38C6D9;" width="28.444" height="68.956"/>
<rect x="294.438" y="169.21" transform="matrix(-0.7071 0.7071 -0.7071 -0.7071 670.9452 129.4605)" style="fill:#02B2B2;" width="28.444" height="68.956"/>
<rect x="330.097" y="133.567" transform="matrix(-0.7071 0.7071 -0.7071 -0.7071 706.6156 43.3996)" style="fill:#386895;" width="28.444" height="68.956"/>
<path style="fill:#FFFFFF;" d="M142.222,357.998v-61.773c0-6.506,5.273-11.779,11.779-11.779h260.884
	c6.506,0,11.779,5.273,11.779,11.779v61.773c0,6.506-5.273,11.779-11.779,11.779H154.002
	C147.496,369.778,142.222,364.504,142.222,357.998z"/>
<g>
	<path style="fill:#D0D1D3;" d="M142.222,326.106v31.892c0,6.506,5.273,11.779,11.779,11.779h260.884
		c6.506,0,11.779-5.273,11.779-11.779v-31.892L142.222,326.106L142.222,326.106z"/>
	<circle style="fill:#D0D1D3;" cx="184.889" cy="327.111" r="14.222"/>
</g>
<path style="fill:#A6A8AA;" d="M170.717,326.106c-0.022,0.333-0.05,0.665-0.05,1.005c0,7.854,6.368,14.222,14.222,14.222
	s14.222-6.368,14.222-14.222c0-0.34-0.028-0.672-0.05-1.005H170.717z"/>
<rect x="227.556" y="292.633" style="fill:#FFEDB5;" width="28.444" height="68.956"/>
<rect x="277.98" y="292.633" style="fill:#FEE187;" width="28.444" height="68.956"/>
<rect x="328.404" y="292.633" style="fill:#FFC61B;" width="28.444" height="68.956"/>
<rect x="378.828" y="292.633" style="fill:#EAA22F;" width="28.444" height="68.956"/>
<rect x="227.556" y="326.111" style="fill:#FEE187;" width="28.444" height="35.483"/>
<rect x="277.98" y="326.111" style="fill:#FFC61B;" width="28.444" height="35.483"/>
<rect x="328.404" y="326.111" style="fill:#EAA22F;" width="28.444" height="35.483"/>
<rect x="378.828" y="326.111" style="fill:#FF5419;" width="28.444" height="35.483"/>
<g>
</g>
<g>
</g>
<g>
</g>
<g>
</g>
<g>
</g>
<g>
</g>
<g>
</g>
<g>
</g>
<g>
</g>
<g>
</g>
<g>
</g>
<g>
</g>
<g>
</g>
<g>
</g>
<g>
</g>
</svg>
