<svg width="26" height="26" viewBox="0 0 26 26" xmlns="http://www.w3.org/2000/svg"><title>phone</title><path d="M7.879 25h-.106a8.55 8.55 0 0 1-1.101-.082 6.476 6.476 0 0 1-1.606-.41 6.67 6.67 0 0 1-2.062-1.313L1.82 22.012a2.722 2.722 0 0 1-.82-1.84 2.524 2.524 0 0 1 .738-1.899l3.328-3.328a2.505 2.505 0 0 1 1.793-.726c.727 0 1.442.293 1.946.797l1.804 1.816c.996-.55 2.286-1.312 3.598-2.625 1.324-1.324 2.074-2.613 2.625-3.598l-1.816-1.804c-1.032-1.043-1.067-2.742-.07-3.739l3.327-3.328A2.487 2.487 0 0 1 20.066 1h.106a2.763 2.763 0 0 1 1.84.809l1.172 1.183a6.763 6.763 0 0 1 1.324 2.063c.21.562.351 1.09.422 1.629.047.363.07.726.07 1.09.035 3.644-1.992 7.734-5.73 11.496C15.543 22.96 11.5 25 7.879 25zm-1.02-9.281c-.293 0-.55.105-.726.281l-3.328 3.328c-.211.211-.317.48-.305.785.012.305.14.598.375.832l1.184 1.172A4.938 4.938 0 0 0 6.87 23.43c.305.047.61.07.914.07h.094c3.176 0 6.937-1.934 10.336-5.297 3.387-3.422 5.32-7.219 5.285-10.418 0-.293-.023-.61-.07-.914a4.697 4.697 0 0 0-.328-1.266 4.977 4.977 0 0 0-.997-1.57l-1.16-1.16a1.195 1.195 0 0 0-.832-.375c-.328 0-.586.105-.773.293L16 6.133c-.398.398-.363 1.16.082 1.605l2.59 2.59-.375.738c-.621 1.114-1.442 2.614-3.024 4.207-1.582 1.57-3.082 2.403-4.171 3l-.762.41-2.602-2.601a1.25 1.25 0 0 0-.879-.363z" stroke-width=".3" stroke="#16374B" fill="#16374B" fill-rule="evenodd"/></svg>