<?xml version="1.0" encoding="iso-8859-1"?>
<!-- Generator: Adobe Illustrator 16.0.0, SVG Export Plug-In . SVG Version: 6.00 Build 0)  -->
<!DOCTYPE svg PUBLIC "-//W3C//DTD SVG 1.1//EN" "http://www.w3.org/Graphics/SVG/1.1/DTD/svg11.dtd">
<svg version="1.1" id="Capa_1" xmlns="http://www.w3.org/2000/svg" xmlns:xlink="http://www.w3.org/1999/xlink" x="0px" y="0px"
	 width="216.796px" height="216.796px" viewBox="0 0 216.796 216.796" style="enable-background:new 0 0 216.796 216.796;"
	 xml:space="preserve">
<g>
	<g>
		<path d="M215.444,96.258c-2.037-2.347-5.562-2.599-7.909-0.583l-50.68,43.7h-21.604c0.822-0.252,1.636-0.554,2.414-1.007
			l50.428-29.582c5.336-3.135,7.125-10,4.001-15.335c-3.146-5.337-10.007-7.122-15.338-4l-50.431,29.578
			c-1.686,0.997-2.966,2.375-3.899,3.935L71.73,107.561c-1.52-0.466-3.156-0.385-4.636,0.202l-56.032,22.415
			c-3.599,1.433-5.341,5.509-3.898,9.098c1.09,2.736,3.721,4.405,6.497,4.405c0.871,0,1.748-0.158,2.603-0.509l6.026-2.413
			l-0.407,0.279L1.614,161.579c-2.173,2.2-2.15,5.746,0.056,7.924c1.087,1.073,2.509,1.609,3.933,1.609
			c1.446,0,2.897-0.559,3.991-1.67l18.608-18.86H157.39l33.309,19.747c0.896,0.531,1.877,0.783,2.852,0.783
			c1.915,0,3.782-0.979,4.825-2.745c1.572-2.661,0.7-6.098-1.968-7.672l-27.915-16.555l46.354-39.97
			C217.195,102.143,217.456,98.605,215.444,96.258z M25.865,139.375l-0.203,0.043l44.345-17.738l58.235,17.695H25.865z"/>
		<circle cx="176.017" cy="65.923" r="20.24"/>
	</g>
</g>
<g>
</g>
<g>
</g>
<g>
</g>
<g>
</g>
<g>
</g>
<g>
</g>
<g>
</g>
<g>
</g>
<g>
</g>
<g>
</g>
<g>
</g>
<g>
</g>
<g>
</g>
<g>
</g>
<g>
</g>
</svg>
