<svg width="35" height="35" viewBox="0 0 35 35" xmlns="http://www.w3.org/2000/svg"><title>star</title><path d="M34.798 14.38c.202-.202.243-.526.162-.81a.749.749 0 0 0-.69-.445H23.09L18.19.486C18.067.202 17.784 0 17.5 0c-.284 0-.567.202-.689.486L11.91 13.125H.73a.749.749 0 0 0-.69.446c-.08.283-.04.607.163.81l8.507 8.466L6.563 34.15a.736.736 0 0 0 1.134.73l9.803-6.32 9.803 6.32a.782.782 0 0 0 .405.121.77.77 0 0 0 .405-.122.746.746 0 0 0 .325-.729L26.29 22.847l8.507-8.466z" fill="#63EAD3" fill-rule="evenodd"/></svg>