<?xml version="1.0" encoding="UTF-8" standalone="no"?>
<!-- Created with Inkscape (http://www.inkscape.org/) -->

<svg
   xmlns:dc="http://purl.org/dc/elements/1.1/"
   xmlns:cc="http://creativecommons.org/ns#"
   xmlns:rdf="http://www.w3.org/1999/02/22-rdf-syntax-ns#"
   xmlns:svg="http://www.w3.org/2000/svg"
   xmlns="http://www.w3.org/2000/svg"
   xmlns:sodipodi="http://sodipodi.sourceforge.net/DTD/sodipodi-0.dtd"
   xmlns:inkscape="http://www.inkscape.org/namespaces/inkscape"
   width="550"
   height="100"
   id="svg2"
   version="1.1"
   inkscape:version="0.48.4 r9939"
   sodipodi:docname="stars.svg">
  <defs
     id="defs4" />
  <sodipodi:namedview
     id="base"
     pagecolor="#ffffff"
     bordercolor="#666666"
     borderopacity="1.0"
     inkscape:pageopacity="0.0"
     inkscape:pageshadow="2"
     inkscape:zoom="0.7"
     inkscape:cx="485.41007"
     inkscape:cy="-86.898178"
     inkscape:document-units="px"
     inkscape:current-layer="layer1"
     showgrid="false"
     inkscape:window-width="1278"
     inkscape:window-height="775"
     inkscape:window-x="4274"
     inkscape:window-y="163"
     inkscape:window-maximized="0" />
  <metadata
     id="metadata7">
    <rdf:RDF>
      <cc:Work
         rdf:about="">
        <dc:format>image/svg+xml</dc:format>
        <dc:type
           rdf:resource="http://purl.org/dc/dcmitype/StillImage" />
        <dc:title></dc:title>
      </cc:Work>
    </rdf:RDF>
  </metadata>
  <g
     inkscape:label="Layer 1"
     inkscape:groupmode="layer"
     id="layer1"
     transform="translate(0,-952.36218)">
    <path
       style="fill:#000000;fill-opacity:1;stroke:none"
       d="m 56.394022,952.36218 c -6.25642,0.006 -10.764114,29.53481 -15.822716,33.21633 -5.058587,3.68151 -34.5431734,-1.10655 -36.4717117,4.84523 -1.9285519,5.95177 24.7674107,19.35636 26.7055447,25.30496 1.938147,5.9487 -11.745641,32.5334 -6.681109,36.2067 5.064518,3.6733 26.089276,-17.5778 32.345696,-17.5829 6.25642,-0.01 27.287125,21.2077 32.345713,17.5262 5.058588,-3.6816 -8.647526,-30.2361 -6.71898,-36.1878 1.928553,-5.9518 28.605841,-19.41313 26.667691,-25.36179 -1.93813,-5.94867 -31.426121,-1.09618 -36.490642,-4.76953 -5.06452,-3.67336 -9.623065,-33.20244 -15.879486,-33.1974 z m 0,6.71896 c 5.494256,-0.004 9.501423,25.94018 13.948965,29.16603 4.447546,3.22585 30.340863,-1.02225 32.042883,4.20172 1.70203,5.22399 -21.718708,17.03111 -23.412315,22.25781 -1.693599,5.2267 10.347473,28.5448 5.905125,31.7778 -4.442335,3.2331 -22.933631,-15.3918 -28.427873,-15.3873 -5.494255,0 -23.94249,18.6511 -28.390034,15.4252 -4.447544,-3.2259 7.569301,-26.5539 5.867276,-31.7779 -1.702038,-5.2239 -25.1627024,-17.01211 -23.469091,-22.23882 1.693596,-5.22672 27.600535,-1.00656 32.042882,-4.23957 4.442333,-3.23304 8.397927,-29.18053 13.892182,-29.18497 z"
       id="path2985"
       inkscape:connector-curvature="0" />
    <path
       id="path2995"
       style="fill:#000000;fill-opacity:1;stroke:none"
       d="m 141.59416,1040.7569 c -3.7881,-2.7476 6.43985,-22.6216 4.99018,-27.0711 -1.44967,-4.4494 -21.42217,-14.48384 -19.97968,-18.93559 1.44249,-4.45176 23.50451,-0.86581 27.28819,-3.61948 14.26604,-38.44818 8.969,-14.80734 0.87412,12.08017 -4.48173,14.8862 -9.82105,31.0675 -13.17281,37.546 z m 24.1204,-88.39472 c -6.25643,0.006 -10.76412,29.53482 -15.82271,33.21633 -5.05859,3.68152 -34.54317,-1.10655 -36.47173,4.84523 -1.92853,5.95177 24.76741,19.35636 26.70556,25.30496 1.93814,5.9487 -11.74564,32.5334 -6.68112,36.2067 5.06451,3.6734 26.08928,-17.5778 32.34571,-17.5829 6.25642,-0.01 27.2871,21.2077 32.34571,17.5261 5.05858,-3.6815 -8.64753,-30.2359 -6.71898,-36.1877 1.92854,-5.9518 28.60584,-19.41313 26.66769,-25.36179 -1.93813,-5.94865 -31.42612,-1.09616 -36.49064,-4.76953 -5.06452,-3.67335 -9.62307,-33.20244 -15.87949,-33.1974 z m 0,6.71896 c 5.49425,-0.004 9.50141,25.94018 13.94897,29.16604 4.44754,3.22585 30.34085,-1.02226 32.04286,4.20172 1.70204,5.22398 -21.71869,17.0311 -23.4123,22.2578 -1.6936,5.2267 10.34746,28.5448 5.90513,31.7778 -4.44234,3.2331 -22.93363,-15.3918 -28.42788,-15.3873 -5.49425,0 -23.94248,18.6511 -28.39003,15.4252 -4.44754,-3.2259 7.5693,-26.5539 5.86727,-31.7779 -1.70203,-5.2239 -25.16269,-17.01211 -23.46908,-22.23882 1.6936,-5.22672 27.60053,-1.00656 32.04286,-4.23957 4.44235,-3.23303 8.39794,-29.18052 13.8922,-29.18497 z"
       inkscape:connector-curvature="0" />
    <path
       id="path3020"
       style="fill:#000000;fill-opacity:1;stroke:none"
       d="m 275.09765,1027.6065 c -4.67963,0 -20.39481,15.8979 -24.18292,13.1504 -3.7881,-2.7476 6.43986,-22.6216 4.99019,-27.0711 -1.44968,-4.4494 -21.42219,-14.48384 -19.97969,-18.93559 1.44249,-4.45176 23.50451,-0.86581 27.28819,-3.61948 3.78367,-2.75367 7.15516,-24.84947 11.83478,-24.85325 6.97829,29.71886 3.57394,58.35172 0.0494,61.32902 z m -0.0626,-75.24432 c -6.25642,0.006 -10.76412,29.53482 -15.8227,33.21633 -5.05859,3.68152 -34.54318,-1.10655 -36.47172,4.84523 -1.92856,5.95177 24.7674,19.35636 26.70555,25.30496 1.93814,5.9487 -11.74564,32.5334 -6.68112,36.2067 5.06452,3.6734 26.08927,-17.5778 32.34571,-17.5829 6.25642,-0.01 27.28711,21.2077 32.3457,17.5261 5.05859,-3.6815 -8.64752,-30.2359 -6.71898,-36.1877 1.92855,-5.9518 28.60584,-19.41313 26.66771,-25.36179 -1.93815,-5.94865 -31.42613,-1.09616 -36.49065,-4.76953 -5.06453,-3.67335 -9.62306,-33.20244 -15.8795,-33.1974 z m 0,6.71896 c 5.49426,-0.004 9.50143,25.94018 13.94897,29.16604 4.44756,3.22585 30.34085,-1.02226 32.04288,4.20172 1.70203,5.22398 -21.71871,17.0311 -23.41231,22.2578 -1.69359,5.2267 10.34747,28.5448 5.90513,31.7778 -4.44235,3.2331 -22.93363,-15.3918 -28.42789,-15.3873 -5.49425,0 -23.94247,18.6511 -28.39001,15.4252 -4.44756,-3.2259 7.5693,-26.5539 5.86726,-31.7779 -1.70202,-5.2239 -25.16269,-17.01211 -23.4691,-22.23882 1.69362,-5.22672 27.60056,-1.00656 32.04289,-4.23957 4.44233,-3.23303 8.39794,-29.18052 13.89218,-29.18497 z"
       inkscape:connector-curvature="0" />
    <path
       id="path3024"
       style="fill:#000000;fill-opacity:1;stroke:none"
       d="m 384.37461,966.27329 c -4.67962,0.004 -8.06442,22.09707 -11.84811,24.85074 -3.78368,2.75366 -25.83087,-0.81782 -27.27335,3.63393 -1.4425,4.45175 18.51798,14.47724 19.96766,18.92664 1.44965,4.4495 -8.76584,24.3176 -4.97773,27.0652 3.78812,2.7475 19.48976,-13.1313 24.16938,-13.1351 4.30215,-0.1592 8.81191,3.6164 12.69981,2.7443 4.31366,-12.1091 7.4036,-24.4222 6.85146,-37.3423 -1.93023,-0.72498 -4.44457,-1.3773 -7.72209,-1.91159 -3.78811,-2.74757 -7.18741,-24.83559 -11.86703,-24.83182 z m -0.019,-13.91111 c -6.25642,0.006 -10.76411,29.53482 -15.8227,33.21633 -5.0586,3.68152 -34.54319,-1.10655 -36.47173,4.84523 -1.92854,5.95177 24.76742,19.35636 26.70555,25.30496 1.93815,5.9487 -11.74564,32.5334 -6.68111,36.2067 5.06452,3.6734 26.08928,-17.5778 32.34569,-17.5829 6.25644,-0.01 27.28713,21.2077 32.34571,17.5261 5.05859,-3.6815 -8.64752,-30.236 -6.71897,-36.1877 1.92855,-5.9518 28.60584,-19.41313 26.66771,-25.36179 -1.93815,-5.94865 -31.42614,-1.09616 -36.49066,-4.76953 -5.06452,-3.67335 -9.62306,-33.20244 -15.87949,-33.1974 z m 0,6.71896 c 5.49426,-0.004 9.50142,25.94018 13.94897,29.16604 4.44754,3.22585 30.34086,-1.02226 32.04288,4.20172 1.70203,5.22398 -21.71871,17.0311 -23.41231,22.2578 -1.6936,5.2267 10.34747,28.5448 5.90512,31.7778 -4.44233,3.2331 -22.93363,-15.3918 -28.42787,-15.3873 -5.49426,0 -23.94249,18.6511 -28.39003,15.4252 -4.44755,-3.2259 7.56931,-26.5539 5.86727,-31.7779 -1.70204,-5.2239 -25.16269,-17.01211 -23.46909,-22.23882 1.6936,-5.22672 27.60053,-1.00656 32.04288,-4.23957 4.44233,-3.23303 8.39793,-29.18052 13.89218,-29.18497 z"
       inkscape:connector-curvature="0" />
    <path
       id="path3052"
       style="fill:#000000;fill-opacity:1;stroke:none"
       d="m 517.94277,1040.7179 c -3.78369,2.7536 -19.52448,-13.1151 -24.20411,-13.1114 -4.67961,0 -20.39481,15.8979 -24.18291,13.1504 -3.78811,-2.7476 6.43986,-22.6216 4.99019,-27.0711 -1.44967,-4.4494 -21.42218,-14.48386 -19.97969,-18.93559 1.44249,-4.45176 23.50451,-0.86581 27.28819,-3.61948 3.78367,-2.75367 7.15517,-24.84947 11.8348,-24.85325 4.67962,-0.004 8.08672,22.08658 11.87484,24.83413 3.78811,2.74757 25.84432,-0.87394 27.29399,3.57548 1.44967,4.44941 -18.50664,14.51611 -19.94914,18.96781 -1.44249,4.4518 8.8175,24.3093 5.03384,27.063 z m -24.26662,-88.35572 c -6.25643,0.006 -10.76413,29.53482 -15.82271,33.21633 -5.05859,3.68152 -34.54318,-1.10655 -36.47173,4.84523 -1.92854,5.95177 24.76742,19.35636 26.70556,25.30496 1.93814,5.9487 -11.74564,32.5334 -6.68112,36.2067 5.06452,3.6734 26.08929,-17.5778 32.34571,-17.5829 6.25642,-0.01 27.2871,21.2077 32.34571,17.5261 5.05858,-3.6815 -8.64753,-30.236 -6.71898,-36.1877 1.92854,-5.9518 28.60584,-19.41313 26.6677,-25.36179 -1.93814,-5.94865 -31.42613,-1.09616 -36.49065,-4.76953 -5.06452,-3.67335 -9.62307,-33.20244 -15.87949,-33.1974 z m 0,6.71896 c 5.49424,-0.004 9.50141,25.94018 13.94897,29.16604 4.44755,3.22585 30.34084,-1.02226 32.04287,4.20172 1.70203,5.22398 -21.71869,17.0311 -23.41231,22.2578 -1.6936,5.2267 10.34746,28.5448 5.90513,31.7778 -4.44233,3.2331 -22.93363,-15.3918 -28.42789,-15.3873 -5.49424,0 -23.94247,18.6511 -28.39002,15.4252 -4.44754,-3.2259 7.56931,-26.5539 5.86728,-31.7779 -1.70204,-5.2239 -25.16271,-17.01211 -23.46909,-22.23882 1.6936,-5.22672 27.60053,-1.00656 32.04287,-4.23957 4.44235,-3.23303 8.39794,-29.18052 13.89219,-29.18497 z"
       inkscape:connector-curvature="0" />
  </g>
</svg>
