<?xml version="1.0" encoding="iso-8859-1"?>
<!-- Generator: Adobe Illustrator 19.0.0, SVG Export Plug-In . SVG Version: 6.00 Build 0)  -->
<svg version="1.1" id="Layer_1" xmlns="http://www.w3.org/2000/svg" xmlns:xlink="http://www.w3.org/1999/xlink" x="0px" y="0px"
	 viewBox="0 0 512 512" style="enable-background:new 0 0 512 512;" xml:space="preserve">
<circle style="fill:#263A7A;" cx="256" cy="256" r="256"/>
<path style="fill:#121149;" d="M334.527,499.712C437.493,466.56,512,369.988,512,256c0-7.39-0.331-14.701-0.945-21.932
	L397.314,120.327l-26.893,0.643L242.535,248.856l67.875,67.875l-69.96,88.904L334.527,499.712z"/>
<rect x="124.689" y="227.317" transform="matrix(0.7071 0.7071 -0.7071 0.7071 271.1176 -69.5412)" style="fill:#FFFFFF;" width="189.628" height="130.361"/>
<rect x="205.278" y="260.717" transform="matrix(0.7071 0.7071 -0.7071 0.7071 304.5121 -83.3625)" style="fill:#D0D1D3;" width="95.21" height="130.36"/>
<path style="fill:#FFC61B;" d="M330.271,125.707l-63,85.501l33.521,33.521l85.501-63c21.925-16.155,25.909-46.835,8.361-64.384l0,0
	C377.106,99.799,346.426,103.783,330.271,125.707z M376.217,135.783c4.629,4.629,4.253,12.509-0.838,17.599
	c-5.091,5.091-12.971,5.467-17.599,0.838c-4.629-4.629-4.253-12.509,0.838-17.599C363.71,131.531,371.588,131.155,376.217,135.783z"
	/>
<g>
	<path style="fill:#EAA22F;" d="M394.654,117.346L394.654,117.346c-0.097-0.097-0.198-0.183-0.297-0.278l-18.444,18.444
		c0.1,0.093,0.207,0.174,0.303,0.271c4.629,4.629,4.253,12.509-0.838,17.599c-5.091,5.091-12.971,5.467-17.599,0.838
		c-0.097-0.097-0.179-0.203-0.271-0.303l-73.764,73.764l17.048,17.048l85.501-63C408.217,165.574,412.201,134.894,394.654,117.346z"
		/>
	<path style="fill:#EAA22F;" d="M358.671,265.735L246.263,153.328c-10.616-10.616-27.827-10.616-38.443,0l-36.274,36.278
		l150.849,150.849l36.276-36.276C369.286,293.562,369.286,276.351,358.671,265.735z"/>
</g>
<path style="fill:#FF5419;" d="M302.182,209.244l-55.498,55.498l75.712,75.712l36.276-36.276c10.616-10.616,10.616-27.827,0-38.443
	L302.182,209.244z"/>
<g>
	
		<rect x="155.567" y="229.946" transform="matrix(0.7071 0.7071 -0.7071 0.7071 236.8655 -33.7386)" style="fill:#D0D1D3;" width="7.183" height="78.213"/>
	
		<rect x="166.485" y="240.848" transform="matrix(0.7071 0.7071 -0.7071 0.7071 247.772 -38.2653)" style="fill:#D0D1D3;" width="7.183" height="78.213"/>
</g>
<g>
	
		<rect x="245.21" y="319.592" transform="matrix(0.7071 0.7071 -0.7071 0.7071 326.5105 -70.8691)" style="fill:#A6A8AA;" width="7.183" height="78.213"/>
	
		<rect x="228.454" y="302.829" transform="matrix(0.7071 0.7071 -0.7071 0.7071 309.7493 -63.9304)" style="fill:#A6A8AA;" width="7.183" height="78.213"/>
	
		<rect x="211.697" y="286.048" transform="matrix(0.7071 0.7071 -0.7071 0.7071 292.976 -56.9968)" style="fill:#A6A8AA;" width="7.183" height="78.213"/>
</g>
<g>
</g>
<g>
</g>
<g>
</g>
<g>
</g>
<g>
</g>
<g>
</g>
<g>
</g>
<g>
</g>
<g>
</g>
<g>
</g>
<g>
</g>
<g>
</g>
<g>
</g>
<g>
</g>
<g>
</g>
</svg>
