<?xml version="1.0" encoding="iso-8859-1"?>
<!-- Generator: Adobe Illustrator 19.0.0, SVG Export Plug-In . SVG Version: 6.00 Build 0)  -->
<svg version="1.1" id="Layer_1" xmlns="http://www.w3.org/2000/svg" xmlns:xlink="http://www.w3.org/1999/xlink" x="0px" y="0px"
	 viewBox="0 0 512 512" style="enable-background:new 0 0 512 512;" xml:space="preserve">
<path style="fill:#DBD6D2;" d="M35.31,494.345H17.655c-5.297,0-8.828-3.531-8.828-8.828s3.531-8.828,8.828-8.828H35.31
	c5.297,0,8.828,3.531,8.828,8.828S40.607,494.345,35.31,494.345"/>
<path style="fill:#EDE7E9;" d="M52.966,476.69h406.069V35.31H52.966V476.69z"/>
<path style="fill:#556080;" d="M88.276,476.69h335.448V70.621H88.276V476.69z"/>
<g>
	<path style="fill:#DBD6D2;" d="M476.69,476.69H35.31v17.655c0,9.71,7.945,17.655,17.655,17.655h406.069
		c9.71,0,17.655-7.945,17.655-17.655V476.69z"/>
	<path style="fill:#DBD6D2;" d="M459.034,0H52.966C43.255,0,35.31,7.945,35.31,17.655S43.255,35.31,52.966,35.31h406.069
		c9.71,0,17.655-7.945,17.655-17.655S468.745,0,459.034,0"/>
	<path style="fill:#DBD6D2;" d="M494.345,494.345H476.69c-5.297,0-8.828-3.531-8.828-8.828s3.531-8.828,8.828-8.828h17.655
		c5.297,0,8.828,3.531,8.828,8.828S499.641,494.345,494.345,494.345"/>
</g>
<g>
	<path style="fill:#EDE7E9;" d="M256,256c-5.297,0-8.828-3.531-8.828-8.828v-35.31c0-5.297,3.531-8.828,8.828-8.828
		c5.297,0,8.828,3.531,8.828,8.828v35.31C264.828,251.586,261.297,256,256,256"/>
	<path style="fill:#EDE7E9;" d="M256,256c-9.71,0-17.655,7.945-17.655,17.655c0,9.71,7.945,17.655,17.655,17.655
		c9.71,0,17.655-7.945,17.655-17.655S265.71,256,256,256 M256,308.966c-19.421,0-35.31-15.89-35.31-35.31s15.89-35.31,35.31-35.31
		s35.31,15.89,35.31,35.31S275.421,308.966,256,308.966"/>
</g>
<path style="fill:#71C3AA;" d="M88.276,211.862h335.448V70.621H88.276V211.862z"/>
<g>
	<path style="fill:#25AE88;" d="M114.759,114.759c5.297,0,8.828-3.531,8.828-8.828c0-5.297-3.531-8.828-8.828-8.828H88.276v17.655
		H114.759z"/>
	<path style="fill:#25AE88;" d="M132.414,150.069c5.297,0,8.828-3.531,8.828-8.828s-3.531-8.828-8.828-8.828H88.276v17.655H132.414z
		"/>
	<path style="fill:#25AE88;" d="M150.069,185.379c5.297,0,8.828-3.531,8.828-8.828s-3.531-8.828-8.828-8.828H88.276v17.655H150.069z
		"/>
	<path style="fill:#25AE88;" d="M361.931,97.103c-5.297,0-8.828,3.531-8.828,8.828c0,5.297,3.531,8.828,8.828,8.828h61.793V97.103
		H361.931z"/>
	<path style="fill:#25AE88;" d="M379.586,132.414c-5.297,0-8.828,3.531-8.828,8.828s3.531,8.828,8.828,8.828h44.138v-17.655H379.586
		z"/>
	<path style="fill:#25AE88;" d="M397.241,167.724c-5.297,0-8.828,3.531-8.828,8.828s3.531,8.828,8.828,8.828h26.483v-17.655H397.241
		z"/>
</g>
<g>
</g>
<g>
</g>
<g>
</g>
<g>
</g>
<g>
</g>
<g>
</g>
<g>
</g>
<g>
</g>
<g>
</g>
<g>
</g>
<g>
</g>
<g>
</g>
<g>
</g>
<g>
</g>
<g>
</g>
</svg>
