<svg width="42" height="54" viewBox="0 0 42 54" xmlns="http://www.w3.org/2000/svg"><title>your-city-icon@3x</title><g stroke="#3D77EA" fill="none" fill-rule="evenodd" stroke-linecap="round"><path d="M33.842 18.101c4.058 3.569 6.617 8.79 6.617 14.622 0 7.086-3.793 13.295-9.452 16.7a19.365 19.365 0 0 1-10.023 2.774c-3.589 0-6.943-.969-9.829-2.671C5.385 46.15 1.51 39.89 1.51 32.723c0-8.412 5.343-15.58 12.806-18.302" stroke-width="1.774" stroke-linejoin="round"/><path d="M20.424 31.53c.892 0 1.643.751 1.643 1.644 0 .893-.751 1.644-1.643 1.644a1.665 1.665 0 0 1-1.645-1.644c0-.893.753-1.644 1.645-1.644zM12.157 7.622C12.86 3.865 16.29 1 20.893 1c5.166 0 8.924 3.804 8.924 8.454 0 7.703-9.958 8.032-9.958 12.071 0 1.503 1.176 2.725 1.503 3.053l-.704.61c-.329-.328-1.737-1.831-1.737-3.663 0-4.837 9.956-4.79 9.956-12.07 0-4.181-3.334-7.61-7.984-7.61-4.04 0-7.186 2.537-7.844 6.013l-.892-.236z" fill="#3D77EA"/></g></svg>